<!DOCTYPE svg PUBLIC "-//W3C//DTD SVG 1.1//EN" "http://www.w3.org/Graphics/SVG/1.1/DTD/svg11.dtd">
<!-- Uploaded to: SVG Repo, www.svgrepo.com, Transformed by: SVG Repo Mixer Tools -->
<svg fill="#8b5cf6" width="800px" height="800px" viewBox="0 0 24.00 24.00" xmlns="http://www.w3.org/2000/svg" stroke="#8b5cf6" stroke-width="0.00024000000000000003">
<g id="SVGRepo_bgCarrier" stroke-width="0"/>
<g id="SVGRepo_tracerCarrier" stroke-linecap="round" stroke-linejoin="round"/>
<g id="SVGRepo_iconCarrier">
<path d="M19 22V4c0-1.103-.897-2-2-2H7c-1.103 0-2 .897-2 2v18l7-4.666L19 22zM8.006 8.056c0-.568.224-1.083.585-1.456.361-.372.86-.603 1.412-.603 0 0 .996-.003 1.997 1.029 1.001-1.032 1.997-1.029 1.997-1.029.552 0 1.051.23 1.412.603s.585.888.585 1.456-.224 1.084-.585 1.456L12 13.203 8.591 9.512a2.083 2.083 0 0 1-.585-1.456z"/>
</g>
</svg>